# xmcd
#
# Track frame offsets:
#	150
#	13853
#	33968
#	53343
#	71520
#	97277
#	113378
#	130401
#	149734
#	166026
#	181702
#	198224
#	220028
#
# Disc length: 3169
#
# Revision: 6
# Processed by: cddbd v1.5.1PL0 Copyright (c) Steve Scherf et al.
# Submitted via: CDex 1.40Beta9
# Normalized: r4:DSETVAR1,TDELIM( - ),TSWAP
#
DISCID=ac0c5f0d
DTITLE=Various Artist - Love Songs - Los Años Maravillosos
DYEAR=1900
DGENRE=Blues
TTITLE0=Tiffanny - Could've Been
TTITLE1=Diana Ross and Lionel Richie - Endless Love
TTITLE2=Roxxette - Must have been love
TTITLE3=Boyz II men - I'll make love to you
TTITLE4=Peaches and Herb - Reunited
TTITLE5=Eric Clapton - Layla
TTITLE6=Andy Gibb - I just want to be your everything
TTITLE7=Jets - Make it real
TTITLE8=Commodores - Three times a lady
TTITLE9=UB40 - Can't help falling in love
TTITLE10=Gino Vannelli - I just wanna stop
TTITLE11=Billy Preston - You are so beautiful
TTITLE12=Godley and Cremme - Cry
EXTD=ID3G: 0
EXTT0=
EXTT1=
EXTT2=
EXTT3=
EXTT4=
EXTT5=
EXTT6=
EXTT7=
EXTT8=
EXTT9=
EXTT10=
EXTT11=
EXTT12=
PLAYORDER=
